# xmcd
#
# Track frame offsets:
#	150
#	15635
#	33057
#	53260
#	69759
#	90896
#	102574
#	131958
#	147831
#	166844
#	181949
#	197873
#	221967
#	232680
#	244541
#
# Disc length: 4312 seconds
#
# Revision: 1
# Processed by: cddbd v1.5.1PL0 Copyright (c) Steve Scherf et al.
# Submitted via: audiograbber 1.83.01
#
DISCID=ba10d60f
DTITLE=Jay Gordon - Rings Around The Sun Vol. 1
DYEAR=2000
DGENRE=Blues
TTITLE0=Amplifier Blues
TTITLE1=Karma (Gonna Get Ya)
TTITLE2=Message To Collins
TTITLE3=Lucky 13
TTITLE4=Drippin Blues
TTITLE5=Drivin Force
TTITLE6=Strings Talkin
TTITLE7=Voodoo Boogie
TTITLE8=Can't Shake This Feelin
TTITLE9=Boogie In The Wine
TTITLE10=Mustang Sally
TTITLE11=Savage Ressurection (For Jimi)
TTITLE12=Rings Around The Sun
TTITLE13=Preview of Tracks (showcasing all songs)
TTITLE14=Black Top Alley (recorded live)
EXTD=
EXTT0=
EXTT1=
EXTT2=
EXTT3=
EXTT4=
EXTT5=
EXTT6=
EXTT7=
EXTT8=
EXTT9=
EXTT10=
EXTT11=
EXTT12=
EXTT13=
EXTT14=Hidden Tracks :\nMidnight Lamp\nBlues Infest
PLAYORDER=
